<?xml version="1.0" encoding="iso-8859-1"?>
<!DOCTYPE svg PUBLIC "-//W3C//DTD SVG 1.1//EN" "http://www.w3.org/Graphics/SVG/1.1/DTD/svg11.dtd">
<svg version="1.1" id="Capa_1" xmlns="http://www.w3.org/2000/svg" xmlns:xlink="http://www.w3.org/1999/xlink" x="0px" y="0px"
	 width="128px" height="128px" viewBox="0 0 45.81 45.81" style="enable-background:new 0 0 45.81 45.81; fill:grey;" xml:space="preserve"
	>
<g>
	<path d="M41.869,39.81h-0.945v-3.645c0-5.294-3.576-9.889-8.712-11.175l-3.799-0.952c1.567-1.394,2.837-3.311,3.683-5.426
		c1.258-0.226,2.437-1.225,2.625-3.519c0.184-2.216-0.546-3.13-1.479-3.496c-0.027-0.708-0.097-1.368-0.153-1.988
		c-0.556-6.068-5.005-10.456-9.632-9.471c-0.734,0.156-1.476,0.126-2.216,0.005c-2.972-0.488-6.072,1.793-7.583,4.173
		c-1.956,3.079-1.729,5.899-1.214,7.349l0,0c-0.857,0.406-1.497,1.337-1.324,3.428c0.183,2.219,1.292,3.227,2.502,3.495
		c0.865,2.124,2.158,4.062,3.744,5.467l-3.743,0.935c-5.136,1.286-8.735,5.881-8.735,11.175l0.007,3.645H3.973
		c-0.804,0-1.432,0.505-1.432,1.31v3.232c0,0.804,0.622,1.458,1.426,1.458h37.902c0.805,0,1.4-0.654,1.4-1.458V41.22
		C43.271,40.414,42.673,39.81,41.869,39.81z M30.974,26.743l-2.479,1.983c-0.263,0.209-0.599,0.302-0.931,0.257
		s-0.631-0.225-0.828-0.498l-1.778-2.467c0.42-0.124,0.831-0.282,1.229-0.475L30.974,26.743z M14.425,12.744
		c0-0.14,0.001-0.278,0.003-0.414c0.524-2.055,1.991-3.738,3.953-4.541c0.394-0.161,0.777-0.343,1.142-0.534
		c0.127-0.066,0.284-0.037,0.379,0.071c0.095,0.108,0.104,0.267,0.021,0.385c-0.384,0.548-0.797,1.075-1.238,1.552
		c-0.173,0.187-0.207,0.464-0.085,0.688c0.123,0.224,0.375,0.344,0.625,0.299c2.15-0.384,5.681-1.343,8.316-3.688
		c0.629-0.56,1.587-0.521,2.169,0.089c0.071,0.074,0.143,0.15,0.212,0.227c0.582,0.637,0.958,1.423,1.091,2.275
		c0.161,1.021,0.246,2.209,0.246,3.592c0,5.245-3.755,11.581-8.417,11.581C18.181,24.324,14.425,17.989,14.425,12.744z
		 M19.599,25.563c0.417,0.201,0.847,0.364,1.287,0.488l-1.754,2.434c-0.196,0.272-0.495,0.452-0.828,0.498s-0.669-0.047-0.931-0.257
		l-2.481-1.985L19.599,25.563z M17.917,43.745h-5.71v-6.387c0-0.277-0.239-0.501-0.516-0.501c-0.276,0-0.516,0.224-0.516,0.501
		l-0.014,2.483L6.863,39.81l-0.006-3.645c0-3.821,2.293-7.203,5.695-8.704l4.249,3.39c0.51,0.407,1.165,0.587,1.811,0.499
		s1.229-0.438,1.611-0.965l0.348-0.481l-0.208,0.877c-0.195,0.808,0.39,1.562,1.204,1.619L17.917,43.745z M38.954,39.81
		l-4.317,0.026v-2.479c0-0.277-0.238-0.501-0.516-0.501s-0.516,0.224-0.516,0.501v6.387h-5.664L24.25,32.4
		c0.834-0.034,1.438-0.811,1.241-1.631l-0.214-0.883l0.352,0.487c0.383,0.53,0.964,0.88,1.612,0.97
		c0.647,0.089,1.303-0.093,1.813-0.5l4.232-3.382c3.398,1.501,5.667,4.882,5.667,8.702V39.81z"/>
</g>
</svg>
