<?xml version="1.0" encoding="iso-8859-1"?>
<svg version="1.1" id="Layer_1" xmlns="http://www.w3.org/2000/svg" xmlns:xlink="http://www.w3.org/1999/xlink" x="0px" y="0px"
	 viewBox="0 0 512 512" style="enable-background:new 0 0 512 512; fill:white;" xml:space="preserve">
<g>
	<g>
		<g>
			<path d="M447.168,134.56c-0.537-1.284-1.319-2.451-2.304-3.435l-128-128c-2.002-1.991-4.707-3.114-7.531-3.125H74.667
				C68.776,0,64,4.776,64,10.667v490.667C64,507.224,68.776,512,74.667,512h362.667c5.891,0,10.667-4.776,10.667-10.667V138.667
				C447.997,137.256,447.714,135.86,447.168,134.56z M320,36.416L411.584,128H320V36.416z M426.667,490.667H85.333V21.333h213.333
				v117.333c0,5.891,4.776,10.667,10.667,10.667h117.333V490.667z"/>
			<path d="M256,224c0,5.891,4.776,10.667,10.667,10.667H352c5.891,0,10.667-4.776,10.667-10.667
				c0-5.891-4.776-10.667-10.667-10.667h-85.333C260.776,213.333,256,218.109,256,224z"/>
			<path d="M352,298.667h-85.333c-5.891,0-10.667,4.776-10.667,10.667S260.776,320,266.667,320H352
				c5.891,0,10.667-4.776,10.667-10.667S357.891,298.667,352,298.667z"/>
			<path d="M352,384h-85.333c-5.891,0-10.667,4.776-10.667,10.667s4.776,10.667,10.667,10.667H352
				c5.891,0,10.667-4.776,10.667-10.667S357.891,384,352,384z"/>
			<path d="M163.125,242.208c4.165,4.164,10.917,4.164,15.083,0l53.333-53.333c4.093-4.237,3.975-10.99-0.262-15.083
				c-4.134-3.992-10.687-3.992-14.82,0l-45.792,45.792l-24.459-24.459c-4.237-4.093-10.99-3.975-15.083,0.262
				c-3.992,4.134-3.992,10.687,0,14.82L163.125,242.208z"/>
			<path d="M163.125,327.541c4.165,4.164,10.917,4.164,15.083,0l53.333-53.333c4.093-4.237,3.975-10.99-0.262-15.083
				c-4.134-3.992-10.687-3.992-14.82,0l-45.792,45.792l-24.459-24.459c-4.237-4.093-10.99-3.976-15.083,0.262
				c-3.993,4.134-3.993,10.687,0,14.821L163.125,327.541z"/>
			<path d="M216.459,344.459l-45.792,45.792l-24.459-24.459c-4.237-4.093-10.99-3.976-15.083,0.262
				c-3.993,4.134-3.993,10.687,0,14.821l32,32c4.165,4.164,10.917,4.164,15.083,0l53.333-53.333
				c4.093-4.237,3.975-10.99-0.262-15.083C227.146,340.466,220.592,340.466,216.459,344.459z"/>
		</g>
	</g>
</g>
</svg>
